<svg width="33" height="33" viewBox="0 0 37 33" fill="none" xmlns="http://www.w3.org/2000/svg">
<path d="M25.3838 17.1615H11.6164C10.9108 17.1615 10.3257 16.6541 10.3257 16.0423C10.3257 15.4304 10.9108 14.9231 11.6164 14.9231H25.3838C26.0894 14.9231 26.6745 15.4304 26.6745 16.0423C26.6745 16.6541 26.0894 17.1615 25.3838 17.1615Z" fill="url(#paint0_linear_23911_1996)"/>
<path d="M18.4999 23.1308C17.7943 23.1308 17.2092 22.6234 17.2092 22.0115V10.0731C17.2092 9.46124 17.7943 8.95386 18.4999 8.95386C19.2055 8.95386 19.7906 9.46124 19.7906 10.0731V22.0115C19.7906 22.6234 19.2055 23.1308 18.4999 23.1308Z" fill="url(#paint1_linear_23911_1996)"/>
<path d="M23.6628 32.0846H13.3372C3.99256 32.0846 0 28.6224 0 20.5192V11.5654C0 3.46215 3.99256 0 13.3372 0H23.6628C33.0074 0 37 3.46215 37 11.5654V20.5192C37 28.6224 33.0074 32.0846 23.6628 32.0846ZM13.3372 2.23846C5.40372 2.23846 2.5814 4.68584 2.5814 11.5654V20.5192C2.5814 27.3987 5.40372 29.8461 13.3372 29.8461H23.6628C31.5963 29.8461 34.4186 27.3987 34.4186 20.5192V11.5654C34.4186 4.68584 31.5963 2.23846 23.6628 2.23846H13.3372Z" fill="url(#paint2_linear_23911_1996)"/>
<defs>
<linearGradient id="paint0_linear_23911_1996" x1="18.5001" y1="14.9231" x2="18.5001" y2="17.1615" gradientUnits="userSpaceOnUse">
<stop stop-color="#9937E7"/>
<stop offset="1" stop-color="#4EBEC5"/>
</linearGradient>
<linearGradient id="paint1_linear_23911_1996" x1="18.4999" y1="8.95386" x2="18.4999" y2="23.1308" gradientUnits="userSpaceOnUse">
<stop stop-color="#9937E7"/>
<stop offset="1" stop-color="#4EBEC5"/>
</linearGradient>
<linearGradient id="paint2_linear_23911_1996" x1="18.5" y1="0" x2="18.5" y2="32.0846" gradientUnits="userSpaceOnUse">
<stop stop-color="#9937E7"/>
<stop offset="1" stop-color="#4EBEC5"/>
</linearGradient>
</defs>
</svg>
