<svg  viewBox="0 0 35 35" fill="none" xmlns="http://www.w3.org/2000/svg">
<path d="M17.4915 35C27.0831 35 35 27.0793 35 17.5C35 7.9207 27.0662 0 17.4746 0C7.89995 0 0 7.9207 0 17.5C0 27.0793 7.91687 35 17.4915 35ZM17.4915 31.5135C9.72692 31.5135 3.51861 25.2684 3.51861 17.5C3.51861 9.73162 9.72692 3.50338 17.4746 3.50338C25.2392 3.50338 31.4814 9.73162 31.4983 17.5C31.5152 25.2684 25.2562 31.5135 17.4915 31.5135ZM20.8579 25.8438C21.45 25.2684 21.4331 24.3375 20.8579 23.7959L14.1928 17.5169L20.8579 11.2548C21.45 10.7132 21.4331 9.76547 20.841 9.20696C20.2997 8.69923 19.42 8.71615 18.8449 9.25774L11.9599 15.7398C10.928 16.6876 10.928 18.3632 11.9599 19.3109L18.8449 25.793C19.3693 26.3008 20.3673 26.3346 20.8579 25.8438Z"/>
</svg>
