<svg width="35" height="35" viewBox="0 0 36 33" fill="none" xmlns="http://www.w3.org/2000/svg">
<path d="M5.81729 33H30.165C34.002 33 36 31.0225 36 27.244V5.75602C36 1.97753 34.002 0 30.165 0H5.81729C1.99804 0 0 1.95987 0 5.75602V27.244C0 31.0225 1.99804 33 5.81729 33ZM5.79961 29.4864C4.33202 29.4864 3.51866 28.7271 3.51866 27.1734V10.9294C3.51866 9.3756 4.33202 8.61637 5.79961 8.61637H30.1827C31.6503 8.61637 32.4637 9.3756 32.4637 10.9294V27.1734C32.4637 28.7271 31.6503 29.4864 30.1827 29.4864H5.79961ZM14.5874 14.7079H15.6306C16.2672 14.7079 16.4794 14.5136 16.4794 13.8957V12.8539C16.4794 12.2183 16.2672 12.0241 15.6306 12.0241H14.5874C13.9509 12.0241 13.7387 12.2183 13.7387 12.8539V13.8957C13.7387 14.5136 13.9509 14.7079 14.5874 14.7079ZM20.3694 14.7079H21.4126C22.0314 14.7079 22.2436 14.5136 22.2436 13.8957V12.8539C22.2436 12.2183 22.0314 12.0241 21.4126 12.0241H20.3694C19.7328 12.0241 19.5206 12.2183 19.5206 12.8539V13.8957C19.5206 14.5136 19.7328 14.7079 20.3694 14.7079ZM26.1336 14.7079H27.1768C27.8134 14.7079 28.0255 14.5136 28.0255 13.8957V12.8539C28.0255 12.2183 27.8134 12.0241 27.1768 12.0241H26.1336C25.5147 12.0241 25.3026 12.2183 25.3026 12.8539V13.8957C25.3026 14.5136 25.5147 14.7079 26.1336 14.7079ZM8.82318 20.3933H9.84872C10.4853 20.3933 10.6974 20.199 10.6974 19.5634V18.5217C10.6974 17.9037 10.4853 17.7095 9.84872 17.7095H8.82318C8.18664 17.7095 7.97446 17.9037 7.97446 18.5217V19.5634C7.97446 20.199 8.18664 20.3933 8.82318 20.3933ZM14.5874 20.3933H15.6306C16.2672 20.3933 16.4794 20.199 16.4794 19.5634V18.5217C16.4794 17.9037 16.2672 17.7095 15.6306 17.7095H14.5874C13.9509 17.7095 13.7387 17.9037 13.7387 18.5217V19.5634C13.7387 20.199 13.9509 20.3933 14.5874 20.3933ZM20.3694 20.3933H21.4126C22.0314 20.3933 22.2436 20.199 22.2436 19.5634V18.5217C22.2436 17.9037 22.0314 17.7095 21.4126 17.7095H20.3694C19.7328 17.7095 19.5206 17.9037 19.5206 18.5217V19.5634C19.5206 20.199 19.7328 20.3933 20.3694 20.3933ZM26.1336 20.3933H27.1768C27.8134 20.3933 28.0255 20.199 28.0255 19.5634V18.5217C28.0255 17.9037 27.8134 17.7095 27.1768 17.7095H26.1336C25.5147 17.7095 25.3026 17.9037 25.3026 18.5217V19.5634C25.3026 20.199 25.5147 20.3933 26.1336 20.3933ZM8.82318 26.061H9.84872C10.4853 26.061 10.6974 25.8668 10.6974 25.2488V24.2071C10.6974 23.5714 10.4853 23.3772 9.84872 23.3772H8.82318C8.18664 23.3772 7.97446 23.5714 7.97446 24.2071V25.2488C7.97446 25.8668 8.18664 26.061 8.82318 26.061ZM14.5874 26.061H15.6306C16.2672 26.061 16.4794 25.8668 16.4794 25.2488V24.2071C16.4794 23.5714 16.2672 23.3772 15.6306 23.3772H14.5874C13.9509 23.3772 13.7387 23.5714 13.7387 24.2071V25.2488C13.7387 25.8668 13.9509 26.061 14.5874 26.061ZM20.3694 26.061H21.4126C22.0314 26.061 22.2436 25.8668 22.2436 25.2488V24.2071C22.2436 23.5714 22.0314 23.3772 21.4126 23.3772H20.3694C19.7328 23.3772 19.5206 23.5714 19.5206 24.2071V25.2488C19.5206 25.8668 19.7328 26.061 20.3694 26.061Z" fill="white"/>
</svg>
