<svg  viewBox="0 0 40 40" fill="none" xmlns="http://www.w3.org/2000/svg">
<path d="M37.8971 5.24522L39.3985 3.66272C40.1593 2.86146 40.2193 1.75972 39.4586 0.998524L38.9381 0.457671C38.2574 -0.223402 37.1163 -0.123245 36.3756 0.617924L34.814 2.14032L37.8971 5.24522ZM14.1939 26.5588L18.2979 24.8361L36.4356 6.68749L33.3526 3.62266L15.2149 21.7913L13.4131 25.7575C13.2129 26.2183 13.7334 26.7391 14.1939 26.5588ZM6.58644 40H29.9092C33.753 40 36.0152 37.7565 36.0152 33.4697V12.3164L32.0113 16.3026V33.1091C32.0113 35.0322 30.9903 35.9937 29.649 35.9937H6.8467C5.00489 35.9937 4.00392 35.0322 4.00392 33.1091V10.8541C4.00392 8.93103 5.00489 7.96951 6.8467 7.96951H23.8433L27.8272 3.9632H6.58644C2.26221 3.9632 0 6.20673 0 10.4935V33.4697C0 37.7565 2.26221 40 6.58644 40Z" fill="#6F1ECD"/>
</svg>
