<svg width="22" height="24" viewBox="0 0 22 24" fill="none" xmlns="http://www.w3.org/2000/svg">
<path d="M5.73381 24H16.2773C17.8026 24 18.6933 23.2168 18.7601 21.7577L19.4615 6.25481H20.998C21.5658 6.25481 22 5.82566 22 5.28923C22 4.75279 21.5547 4.34511 20.998 4.34511H16.166V2.73581C16.166 1.01922 15.0192 0 13.1043 0H8.87348C6.9585 0 5.81174 1.01922 5.81174 2.73581V4.34511H1.00202C0.445344 4.34511 0 4.76352 0 5.28923C0 5.83639 0.445344 6.25481 1.00202 6.25481H2.5496L3.26215 21.7577C3.31781 23.2168 4.2085 24 5.73381 24ZM8.12753 2.83236C8.12753 2.34958 8.47267 2.03844 9.02935 2.03844H12.9595C13.5162 2.03844 13.8613 2.34958 13.8613 2.83236V4.34511H8.12753V2.83236ZM7.42611 20.7063C6.98077 20.7063 6.66903 20.4274 6.65789 19.9982L6.32389 8.60438C6.31275 8.17523 6.62449 7.88556 7.09211 7.88556C7.53745 7.88556 7.84919 8.16451 7.86032 8.59365L8.19433 19.9875C8.2166 20.4166 7.90486 20.7063 7.42611 20.7063ZM11 20.7063C10.5324 20.7063 10.2206 20.4274 10.2206 19.9982V8.59365C10.2206 8.17523 10.5324 7.88556 11 7.88556C11.4676 7.88556 11.7905 8.17523 11.7905 8.59365V19.9982C11.7905 20.4274 11.4676 20.7063 11 20.7063ZM14.5739 20.717C14.0951 20.717 13.7834 20.4166 13.8057 19.9982L14.1397 8.59365C14.1508 8.16451 14.4626 7.88556 14.9079 7.88556C15.3755 7.88556 15.6872 8.17523 15.6761 8.60438L15.3421 19.9982C15.331 20.4274 15.0192 20.717 14.5739 20.717Z" fill="white"/>
</svg>
