<svg width="18" height="22" viewBox="0 0 18 22"  xmlns="http://www.w3.org/2000/svg">
<path d="M0.667969 6.55859C0.667969 7.14746 1.08105 7.69238 1.87207 7.69238H16.1367C16.9277 7.69238 17.3408 7.14746 17.3408 6.55859C17.3408 6.16309 17.1562 5.73242 16.7432 5.44238L10.3008 0.59082C9.86133 0.274414 9.43945 0.116211 9 0.116211C8.56934 0.116211 8.14746 0.274414 7.70801 0.59082L1.26562 5.44238C0.852539 5.73242 0.667969 6.16309 0.667969 6.55859ZM0.597656 10.6543C0.597656 11.1816 0.993164 11.5859 1.54688 11.5859H16.4619C17.0156 11.5859 17.4111 11.1904 17.4111 10.6543C17.4111 10.1094 17.0244 9.71387 16.4619 9.71387H1.54688C0.993164 9.71387 0.597656 10.1094 0.597656 10.6543ZM0.650391 14.7412C0.650391 15.1455 0.834961 15.5674 1.23926 15.8662L7.68164 20.709C8.12109 21.0254 8.54297 21.1836 8.98242 21.1836C9.42188 21.1836 9.84375 21.0254 10.2832 20.709L16.7256 15.8662C17.1299 15.5674 17.3145 15.1455 17.3145 14.7412C17.3145 14.1523 16.9102 13.6074 16.1191 13.6074H1.8457C1.05469 13.6074 0.650391 14.1523 0.650391 14.7412Z" />
</svg>
