<svg  viewBox="0 0 40 30" fill="none" xmlns="http://www.w3.org/2000/svg">
<path d="M28.2044 22.9688V25.3125C28.2044 27.8973 25.4006 30 21.9541 30H6.25027C2.80377 30 0 27.8973 0 25.3125V4.6875C0 2.10274 2.80377 0 6.25027 0H21.9541C25.4006 0 28.2044 2.10274 28.2044 4.6875V7.03125C28.2044 7.67853 27.5049 8.20312 26.6418 8.20312C25.7787 8.20312 25.0792 7.67853 25.0792 7.03125V4.6875C25.0792 3.39523 23.6772 2.34375 21.9541 2.34375H6.25027C4.52718 2.34375 3.12514 3.39523 3.12514 4.6875V25.3125C3.12514 26.6048 4.52718 27.6562 6.25027 27.6562H21.9541C23.6772 27.6562 25.0792 26.6048 25.0792 25.3125V22.9688C25.0792 22.3215 25.7787 21.7969 26.6418 21.7969C27.5049 21.7969 28.2044 22.3215 28.2044 22.9688ZM38.8576 12.987L35.3586 10.3629C34.7482 9.90509 33.7588 9.90509 33.1487 10.3629C32.5384 10.8204 32.5384 11.5624 33.1487 12.02L35.6376 13.8867H16.8757C16.0127 13.8867 15.3132 14.4113 15.3132 15.0586C15.3132 15.7059 16.0127 16.2305 16.8757 16.2305H35.6376L33.1487 18.0972C32.5384 18.5548 32.5384 19.2968 33.1487 19.7543C33.4539 19.9832 33.8537 20.0977 34.2535 20.0977C34.6536 20.0977 35.0534 19.9832 35.3586 19.7543L38.8576 17.1302C40.3808 15.9879 40.3808 14.1293 38.8576 12.987Z" fill="white"/>
</svg>
