<svg width="19" height="23" viewBox="0 0 19 23" fill="none" xmlns="http://www.w3.org/2000/svg">
<path fill-rule="evenodd" clip-rule="evenodd" d="M2.4462 0.574707C1.5448 0.574707 0.813965 1.3507 0.813965 2.3077V20.6968C0.813965 21.6541 1.5448 22.4298 2.4462 22.4298H17.1772C18.0786 22.4298 18.8101 21.6541 18.8101 20.6968V7.51147L12.7269 0.574707H2.4462Z" fill="#9B64B2"/>
<path fill-rule="evenodd" clip-rule="evenodd" d="M18.814 7.52073V7.86227H14.6951C14.6951 7.86227 12.6638 7.43193 12.7227 5.57153C12.7227 5.57153 12.7896 7.52073 14.6549 7.52073H18.814Z" fill="#824B9E"/>
<path opacity="0.5" fill-rule="evenodd" clip-rule="evenodd" d="M12.7307 0.570312V5.54354C12.7307 6.10914 13.086 7.52143 14.6951 7.52143H18.814L12.7307 0.570312Z" fill="white"/>
<path d="M7.59976 18.9726C7.46653 18.9726 7.36227 18.862 7.36227 18.7206V15.5599L6.06439 18.8931C6.04701 18.9422 6.00067 18.9726 5.94275 18.9726C5.8964 18.9726 5.85006 18.9419 5.83269 18.8931L4.5406 15.5599V18.7206C4.5406 18.862 4.43634 18.9726 4.29731 18.9726C4.16408 18.9726 4.05981 18.862 4.05981 18.7206V15.2153C4.05981 14.994 4.23939 14.8034 4.45983 14.8034C4.61623 14.8034 4.77842 14.9018 4.84214 15.0616L5.94886 17.921L7.06137 15.0616C7.12509 14.9018 7.28149 14.8034 7.44369 14.8034C7.66381 14.8034 7.8437 14.994 7.8437 15.2153V18.7206C7.84306 18.862 7.73879 18.9726 7.59976 18.9726ZM10.4433 17.3063H9.37135V18.7206C9.37135 18.862 9.26708 18.9726 9.12806 18.9726C8.99483 18.9726 8.89056 18.862 8.89056 18.7206V15.203C8.89056 15.0001 9.04696 14.8338 9.23844 14.8338H10.4436C11.2202 14.8338 11.6546 15.3998 11.6546 16.0699C11.6543 16.7407 11.2083 17.3063 10.4433 17.3063ZM10.3854 15.2891H9.37135V16.851H10.3854C10.843 16.851 11.1561 16.5313 11.1561 16.0699C11.1561 15.6091 10.843 15.2891 10.3854 15.2891ZM14.8634 17.8968H14.4869V18.7209C14.4869 18.8623 14.3826 18.973 14.2433 18.973C14.1101 18.973 14.0058 18.8623 14.0058 18.7209V17.8968H12.3719C12.2503 17.8968 12.1344 17.7861 12.1344 17.6201C12.1344 17.5648 12.1515 17.5033 12.1808 17.4541L13.7277 14.9882C13.803 14.8714 13.9363 14.7976 14.0756 14.7976C14.2957 14.7976 14.4869 15.0005 14.4869 15.228V17.448H14.8634C14.9735 17.448 15.0662 17.5464 15.0662 17.6758C15.0662 17.7981 14.9732 17.8968 14.8634 17.8968ZM14.0058 15.3075L12.65 17.4477H14.0058V15.3075Z" fill="white"/>
</svg>
