<svg width="120" height="120" viewBox="0 0 120 120" fill="none" xmlns="http://www.w3.org/2000/svg">
<rect width="120" height="120" rx="20" fill="#7130A3"/>
<path d="M60.024 55.6C62.04 55.6 63.576 55.144 64.632 54.232C65.736 53.272 66.288 51.832 66.288 49.912C66.288 48.088 65.712 46.696 64.56 45.736C63.456 44.728 61.824 44.224 59.664 44.224C58.896 44.224 58.248 44.248 57.72 44.296C57.24 44.296 56.736 44.344 56.208 44.44V55.6H60.024ZM56.28 78.712C55.752 78.856 54.912 79 53.76 79.144C52.656 79.288 51.552 79.36 50.448 79.36C49.344 79.36 48.36 79.264 47.496 79.072C46.68 78.928 45.984 78.64 45.408 78.208C44.832 77.776 44.4 77.176 44.112 76.408C43.824 75.64 43.68 74.632 43.68 73.384V39.472C43.68 38.464 43.944 37.696 44.472 37.168C45.048 36.592 45.816 36.136 46.776 35.8C48.408 35.224 50.256 34.816 52.32 34.576C54.432 34.288 56.544 34.144 58.656 34.144C65.28 34.144 70.344 35.56 73.848 38.392C77.352 41.224 79.104 45.064 79.104 49.912C79.104 52.264 78.72 54.4 77.952 56.32C77.232 58.192 76.128 59.824 74.64 61.216C73.2 62.56 71.352 63.616 69.096 64.384C66.888 65.104 64.32 65.464 61.392 65.464H56.28V78.712Z" fill="white"/>
</svg>
