<svg  viewBox="0 0 30 38" fill="none" xmlns="http://www.w3.org/2000/svg">
<path d="M5.69267 38H24.3073C28.0617 38 30 36.0185 30 32.2307V16.5362H16.9034C14.7206 16.5362 13.6729 15.4841 13.6729 13.2921V0H5.69267C1.95576 0 0 1.98154 0 5.7868V32.2307C0 36.0185 1.95576 38 5.69267 38ZM17.2352 13.976H29.8254C29.7206 13.1694 29.1444 12.4153 28.2363 11.4859L18.6845 1.77111C17.8114 0.876788 17.0256 0.280572 16.2224 0.175358V12.9589C16.2398 13.6428 16.5716 13.976 17.2352 13.976ZM8.22468 24.3046C7.47381 24.3046 6.93248 23.761 6.93248 23.0595C6.93248 22.3581 7.47381 21.8145 8.22468 21.8145H21.8277C22.5437 21.8145 23.1024 22.3581 23.1024 23.0595C23.1024 23.761 22.5437 24.3046 21.8277 24.3046H8.22468ZM8.22468 30.8805C7.47381 30.8805 6.93248 30.3369 6.93248 29.6354C6.93248 28.934 7.47381 28.3904 8.22468 28.3904H21.8277C22.5437 28.3904 23.1024 28.934 23.1024 29.6354C23.1024 30.3369 22.5437 30.8805 21.8277 30.8805H8.22468Z" fill="white"/>
</svg>
