<svg xmlns="http://www.w3.org/2000/svg" width="35" height="35" viewBox="0 0 35 35" fill="none">
<path d="M17.5085 -1.52916e-06C7.91687 -2.36768e-06 2.36735e-06 7.92069 1.5299e-06 17.5C6.92449e-07 27.0793 7.93378 35 17.5254 35C27.1 35 35 27.0793 35 17.5C35 7.9207 27.0831 -6.92115e-07 17.5085 -1.52916e-06ZM17.5085 3.48646C25.2731 3.48646 31.4814 9.73162 31.4814 17.5C31.4814 25.2684 25.2731 31.4966 17.5254 31.4966C9.76076 31.4966 3.51861 25.2684 3.50169 17.5C3.48478 9.73162 9.74384 3.48646 17.5085 3.48646ZM14.1421 9.15619C13.55 9.73162 13.5669 10.6625 14.1421 11.2041L20.8072 17.4831L14.1421 23.7452C13.55 24.2867 13.5669 25.2345 14.159 25.793C14.7003 26.3008 15.58 26.2838 16.1551 25.7423L23.0401 19.2602C24.072 18.3124 24.072 16.6368 23.0401 15.6891L16.1551 9.20696C15.6307 8.69922 14.6327 8.66537 14.1421 9.15619Z" fill="#813FC1"/>
</svg>