<svg viewBox="0 0 60 61" fill="none" xmlns="http://www.w3.org/2000/svg">
<path d="M24.7614 49.8774C29.764 49.8774 34.452 48.3564 38.3534 45.7579L52.1342 59.6691C53.0467 60.5564 54.2108 61 55.4693 61C58.0808 61 60 58.9403 60 56.3418C60 55.1377 59.591 53.9652 58.71 53.0779L45.0236 39.2301C47.8553 35.174 49.5228 30.2623 49.5228 24.9387C49.5228 11.2177 38.3849 0 24.7614 0C11.1694 0 0 11.2177 0 24.9387C0 38.6597 11.1379 49.8774 24.7614 49.8774ZM24.7614 43.2229C14.7876 43.2229 6.60724 34.9839 6.60724 24.9387C6.60724 14.8935 14.7876 6.65455 24.7614 6.65455C34.7352 6.65455 42.9156 14.8935 42.9156 24.9387C42.9156 34.9839 34.7352 43.2229 24.7614 43.2229Z" fill="#779F7C"/>
</svg>
