<svg  viewBox="0 0 34 34" fill="none" xmlns="http://www.w3.org/2000/svg">
<path d="M15.4133 34H18.5867C19.8841 34 20.9002 33.1864 21.2129 31.9347L21.8382 29.1965L22.2446 29.04L24.6363 30.5265C25.7306 31.2149 27.028 31.0272 27.9503 30.104L30.1388 27.9135C31.0768 26.9747 31.2331 25.6917 30.5453 24.6121L29.0602 22.2181L29.2166 21.8426L31.9522 21.2011C33.1871 20.8882 34 19.8711 34 18.5725V15.4901C34 14.1914 33.2028 13.1744 31.9522 12.8615L29.2322 12.2043L29.0759 11.7975L30.5609 9.41924C31.2487 8.33962 31.0924 7.0566 30.1545 6.10216L27.966 3.91164C27.0593 2.9885 25.7618 2.81638 24.6676 3.48919L22.2759 4.95996L21.8382 4.8035L21.2129 2.0497C20.9002 0.797975 19.8841 0 18.5867 0H15.4133C14.1002 0 13.0841 0.797975 12.7871 2.0497L12.1618 4.8035L11.7241 4.95996L9.33241 3.48919C8.22253 2.81638 6.94069 2.9885 6.03402 3.91164L3.82988 6.10216C2.90759 7.0566 2.73563 8.33962 3.42345 9.41924L4.90851 11.7975L4.75218 12.2043L2.04782 12.8615C0.797241 13.1744 0 14.1914 0 15.4901V18.5725C0 19.8711 0.812874 20.8882 2.04782 21.2011L4.78345 21.8426L4.92414 22.2181L3.43908 24.6121C2.75126 25.6917 2.92322 26.9747 3.84552 27.9135L6.04965 30.104C6.95632 31.0272 8.25379 31.2149 9.34805 30.5265L11.7398 29.04L12.1618 29.1965L12.7871 31.9347C13.0841 33.1864 14.1002 34 15.4133 34ZM15.8198 31.121C15.554 31.121 15.4133 31.0115 15.3821 30.7768L14.4441 26.9278C13.4593 26.6931 12.5057 26.2862 11.7398 25.8012L8.36322 27.8822C8.16 28.0074 7.97241 27.9917 7.78483 27.804L6.14345 26.1611C5.95586 25.989 5.95586 25.8012 6.08092 25.5978L8.16 22.2181C7.7223 21.4671 7.31586 20.5283 7.08138 19.5426L3.22023 18.6194C2.98575 18.5881 2.86069 18.4473 2.86069 18.1813V15.8656C2.86069 15.584 2.97011 15.4745 3.22023 15.4119L7.06575 14.5044C7.30023 13.4561 7.75356 12.486 8.14437 11.7819L6.06529 8.4335C5.94023 8.21445 5.94023 8.02669 6.11218 7.83893L7.7692 6.21169C7.95678 6.03958 8.12874 6.00828 8.36322 6.1491L11.7085 8.1988C12.412 7.7607 13.4593 7.3226 14.4598 7.07225L15.3821 3.22319C15.4133 2.9885 15.554 2.86332 15.8198 2.86332H18.1802C18.446 2.86332 18.571 2.97285 18.6179 3.22319L19.5559 7.0879C20.572 7.33824 21.4943 7.7607 22.2759 8.1988L25.6211 6.1491C25.8556 6.02393 26.0276 6.03958 26.2152 6.22734L27.8722 7.85458C28.0598 8.02669 28.0598 8.21445 27.9191 8.4335L25.8556 11.7819C26.2308 12.486 26.6998 13.4561 26.9343 14.5044L30.7798 15.4119C31.0299 15.4745 31.1237 15.584 31.1237 15.8656V18.1813C31.1237 18.4473 31.0143 18.5881 30.7798 18.6194L26.9186 19.5426C26.6841 20.5283 26.2621 21.4827 25.8244 22.2181L27.9034 25.5821C28.0285 25.8012 28.0285 25.9733 27.8409 26.1454L26.1995 27.804C26.012 27.9917 25.8244 28.0074 25.6211 27.8822L22.2602 25.8012C21.4786 26.2862 20.5876 26.6774 19.5559 26.9278L18.6179 30.7768C18.571 31.0115 18.446 31.121 18.1802 31.121H15.8198ZM17.0078 22.9379C20.2593 22.9379 22.9324 20.2623 22.9324 16.9922C22.9324 13.7533 20.2593 11.0778 17.0078 11.0778C13.7407 11.0778 11.052 13.7533 11.052 16.9922C11.052 20.2623 13.7407 22.9379 17.0078 22.9379ZM17.0078 20.231C15.2257 20.231 13.772 18.7759 13.772 16.9922C13.772 15.2398 15.2414 13.7846 17.0078 13.7846C18.743 13.7846 20.1968 15.2398 20.1968 16.9922C20.1968 18.7602 18.743 20.231 17.0078 20.231Z" fill="white"/>
</svg>
